<svg viewBox="180 145 240 220" fill="none" xmlns="http://www.w3.org/2000/svg">
  <rect x="180" y="145" width="240" height="220" rx="60" fill="#0A0F1E"/>

  <g transform="translate(106, 106)">
    <path d="M250 50 L 300 100 V 200 L 250 250 H 150 L 100 200 V 100 L 150 50 Z" fill="#3A70B2"/>
    
    <path d="M150 50 C 120 50, 100 80, 100 100 C 80 120, 80 180, 100 200 C 100 220, 120 250, 150 250 Z" fill="#27AE60"/>
    
    <path d="M150 50 V 250" stroke="#0A0F1E" stroke-width="15" stroke-linecap="round"/>
    <path d="M100 100 C 120 100, 140 100, 150 100 M100 200 C 120 200, 140 200, 150 200" stroke="#0A0F1E" stroke-width="15" stroke-linecap="round"/>
    <path d="M300 100 H 250 M300 200 H 250" stroke="#0A0F1E" stroke-width="15" stroke-linecap="round"/>

    <text x="125" y="165" text-anchor="middle" font-family="'Fira Code', monospace" font-size="70" font-weight="bold" fill="white" opacity="0.9">$</text>
  </g>
</svg>